<svg width="106" height="92" viewBox="0 0 106 92" fill="none" xmlns="http://www.w3.org/2000/svg">
<g id="Group">
<path id="Vector" d="M52.9638 89.1051H71.6848C81.1128 89.1051 90.5352 89.0938 99.9632 89.1163C101.116 89.1163 102.213 88.8801 102.455 87.7044C102.618 86.9169 102.354 85.8818 101.938 85.1618C90.7264 65.7207 79.4758 46.3022 68.2252 26.8836C63.8881 19.3963 59.5397 11.909 55.2139 4.41051C54.5782 3.30795 53.7232 2.54853 52.4743 3.03231C51.7881 3.2967 51.1749 4.03361 50.7811 4.70302C41.775 20.1951 32.797 35.7041 23.819 51.2074C17.2374 62.5762 10.6615 73.9449 4.0686 85.308C3.5342 86.2306 3.21918 87.1306 3.82671 88.115C4.41174 89.0657 5.36242 89.1163 6.3581 89.1107C21.8952 89.0995 37.4267 89.1051 52.9638 89.1051Z" stroke="#C70805" stroke-width="5.6253" stroke-linecap="round"/>
<path id="Vector_2" d="M55.8728 73.1517C55.8728 71.3854 54.4439 69.9565 52.6776 69.9565C50.9112 69.9565 49.4824 71.3854 49.4824 73.1517C49.4824 74.9181 50.9112 76.3469 52.6776 76.3469C54.4439 76.3469 55.8728 74.9181 55.8728 73.1517Z" fill="#C70805" stroke="#C70805" stroke-width="5.6253"/>
<path id="Vector_3" d="M53.3187 33.5496L52.998 56.6189" stroke="#C70805" stroke-width="11.2562" stroke-linecap="round"/>
</g>
</svg>
