<svg width="80" height="80" viewBox="0 0 80 80" fill="none" xmlns="http://www.w3.org/2000/svg">
  <g id="Group 1">
    <circle id="Ellipse 1" cx="40" cy="40" r="40" fill="#283034"/>
    <path id="Subtract" fill-rule="evenodd" clip-rule="evenodd"
          d="M74 40C74 56.5685 60.5685 70 44 70C27.4315 70 14 56.5685 14 40C14 39.497 14.0124 38.9969 14.0368 38.5L12.0345 38.5C12.0116 38.9971 12 39.4972 12 40C12 57.6731 26.3269 72 44 72C61.6731 72 76 57.6731 76 40C76 22.3269 61.6731 8 44 8C35.7187 8 28.1722 11.1457 22.4901 16.3074L23.8416 17.7817C29.1677 12.9465 36.2398 10 44 10C60.5685 10 74 23.4315 74 40Z"
          fill="white"
          transform="translate(-4, 0)"
    />
  </g>
  <defs>
    <filter id="filter0_d_1031_3202" x="0" y="0" width="88" height="88" filterUnits="userSpaceOnUse"
            color-interpolation-filters="sRGB">
      <feFlood flood-opacity="0" result="BackgroundImageFix"/>
      <feColorMatrix in="SourceAlpha" type="matrix" values="0 0 0 0 0 0 0 0 0 0 0 0 0 0 0 0 0 0 127 0"
                     result="hardAlpha"/>
      <feOffset dy="4"/>
      <feGaussianBlur stdDeviation="2"/>
      <feComposite in2="hardAlpha" operator="out"/>
      <feColorMatrix type="matrix" values="0 0 0 0 0 0 0 0 0 0 0 0 0 0 0 0 0 0 0.25 0"/>
      <feBlend mode="normal" in2="BackgroundImageFix" result="effect1_dropShadow_1031_3202"/>
      <feBlend mode="normal" in="SourceGraphic" in2="effect1_dropShadow_1031_3202" result="shape"/>
    </filter>
  </defs>
</svg>
